PathFileType  4	(X/Y/Z) W:\OA_GaitRetraining\ACL OpenCap study\PS1\Edited\
DataRate	CameraRate	NumFrames	NumMarkers	Units	OrigDataRate	OrigDataStartFrame	OrigNumFrames
  200.0		  200.0		    9		     46		 mm	  200.0	      37	    147
Frame#	Time	C7			R_Shoulder			L_Shoulder			Sternum			R_humerus			R_elbow_med			R_elbow_lat			R_forearm			R_wrist_radius			R_wrist_ulna			L_humerus			L_elbow_med			L_elbow_lat			L_forearm			L_wrist_radius			L_wrist_ulna			r.ASIS			r.PSIS			L.ASIS			L.PSIS			r_thigh1			r_thigh2			r_thigh3			r_thigh4			r_thigh5			r_knee			r_shank_antsup			r_sh2			r_sh3			r_sh4			r_ankle			r_calc			r_5meta			r_toe			L_thigh1			L_thigh2			L_thigh3			L_thigh4			L_knee			L_shank_antsup			L_sh2			L_sh3			L_ankle			L_calc			L_5meta			L_toe			
		X1	Y1	Z1	X2	Y2	Z2	X3	Y3	Z3	X4	Y4	Z4	X5	Y5	Z5	X6	Y6	Z6	X7	Y7	Z7	X8	Y8	Z8	X9	Y9	Z9	X10	Y10	Z10	X11	Y11	Z11	X12	Y12	Z12	X13	Y13	Z13	X14	Y14	Z14	X15	Y15	Z15	X16	Y16	Z16	X17	Y17	Z17	X18	Y18	Z18	X19	Y19	Z19	X20	Y20	Z20	X21	Y21	Z21	X22	Y22	Z22	X23	Y23	Z23	X24	Y24	Z24	X25	Y25	Z25	X26	Y26	Z26	X27	Y27	Z27	X28	Y28	Z28	X29	Y29	Z29	X30	Y30	Z30	X31	Y31	Z31	X32	Y32	Z32	X33	Y33	Z33	X34	Y34	Z34	X35	Y35	Z35	X36	Y36	Z36	X37	Y37	Z37	X38	Y38	Z38	X39	Y39	Z39	X40	Y40	Z40	X41	Y41	Z41	X42	Y42	Z42	X43	Y43	Z43	X44	Y44	Z44	X45	Y45	Z45	X46	Y46	Z46	

37	0.18000	-92.183	1245.090	-136.952	49.637	1184.680	-213.277	-238.845	1191.582	-234.100	-84.221	1148.584	-261.461	182.288	1030.305	-71.183	141.731	939.025	20.823	209.834	951.554	0.491	210.854	831.884	-102.049	204.839	755.173	-116.297	190.503	781.990	-157.027	-343.274	1077.826	-130.595	-329.738	1007.397	35.051	-395.633	1001.539	2.342	-403.881	907.736	-6.188	-373.794	768.118	26.839	-413.422	783.655	63.341	52.069	767.401	-153.487	-54.930	807.862	33.449	-198.460	778.633	-179.072	-126.281	805.611	30.770	79.043	695.558	-217.072	67.496	622.086	-315.633	101.650	577.501	-310.586	120.434	608.282	-157.412	104.658	541.110	-251.971	76.891	448.878	-398.804	59.869	336.366	-417.374	19.284	228.169	-389.807	72.455	348.214	-342.055	32.852	244.931	-305.404	-17.327	100.879	-287.416	-76.098	82.285	-218.455	7.553	39.274	-369.961	-45.032	53.788	-429.284	-231.628	724.205	-261.584	-224.335	652.389	-378.350	-297.812	644.228	-204.013	-282.862	571.338	-324.676	-266.993	518.248	-449.845	-284.301	360.306	-438.130	-293.639	396.874	-355.640	-282.959	282.035	-314.315	-303.822	180.086	-308.181	-260.388	163.099	-236.341	-339.991	93.507	-377.443	-275.106	100.711	-421.453
38	0.18500	-92.883	1244.640	-152.392	49.294	1182.700	-231.200	-238.005	1187.802	-249.947	-84.324	1145.784	-277.868	183.559	1029.840	-88.877	144.168	939.274	4.198	210.498	950.846	-16.346	211.612	832.801	-120.261	204.639	755.079	-135.737	190.960	782.538	-175.509	-342.862	1075.943	-145.425	-329.752	1010.470	22.380	-395.479	1003.530	-10.316	-404.155	909.692	-15.983	-374.451	770.970	20.176	-413.847	787.788	56.608	55.320	765.561	-166.213	-55.118	807.024	19.631	-198.118	777.609	-193.232	-124.625	805.512	15.133	82.624	692.510	-229.755	70.062	619.284	-327.899	103.274	573.710	-322.823	122.016	604.594	-169.850	105.735	538.436	-264.299	77.749	443.298	-409.081	60.385	332.271	-427.038	18.157	224.797	-395.280	72.767	345.927	-351.679	32.477	244.526	-311.144	-18.422	102.057	-288.904	-77.131	85.405	-220.206	7.159	39.752	-370.363	-45.251	53.395	-430.121	-229.879	724.563	-273.932	-222.095	654.026	-391.571	-296.178	644.213	-217.430	-280.795	572.398	-339.147	-264.976	521.617	-465.207	-285.274	360.854	-461.305	-294.488	393.665	-377.339	-285.702	276.243	-341.928	-307.643	173.134	-341.905	-265.059	151.504	-270.537	-343.740	91.088	-416.536	-278.966	101.133	-459.650
39	0.19000	-92.462	1241.780	-169.677	48.765	1180.768	-249.166	-238.036	1185.046	-265.973	-84.493	1142.885	-294.187	184.854	1029.619	-106.544	146.203	940.324	-12.324	212.280	951.600	-33.171	212.231	834.432	-138.382	205.024	756.070	-153.994	190.993	783.726	-193.839	-342.622	1074.749	-159.611	-329.959	1014.179	9.774	-395.432	1005.903	-22.657	-404.308	912.126	-26.019	-374.401	774.538	12.946	-414.060	792.665	49.709	58.122	764.201	-178.668	-55.168	806.953	5.848	-198.163	777.333	-207.342	-124.482	805.170	0.692	84.971	687.887	-241.781	72.759	615.644	-340.825	104.765	569.107	-334.930	123.678	600.570	-181.782	105.491	534.252	-275.966	78.255	437.904	-419.340	60.124	327.732	-435.832	17.183	221.610	-400.724	74.322	344.376	-360.562	31.926	243.587	-317.546	-18.728	103.948	-290.860	-77.770	88.342	-222.165	6.823	40.211	-370.701	-45.444	52.936	-431.077	-228.221	724.629	-286.063	-220.226	655.315	-404.459	-294.299	643.338	-230.950	-278.716	572.970	-353.128	-263.142	523.819	-480.150	-286.168	361.194	-484.305	-295.591	389.958	-399.464	-288.538	269.739	-370.061	-310.833	164.992	-376.237	-269.088	139.581	-306.239	-347.636	89.539	-455.896	-282.261	102.189	-499.981
40	0.19500	-92.522	1240.431	-186.115	48.090	1178.929	-267.091	-238.233	1182.304	-281.910	-84.811	1139.978	-310.461	186.194	1029.667	-124.235	147.922	941.789	-28.836	214.496	952.956	-50.956	213.208	836.869	-156.796	205.529	758.121	-171.424	190.871	785.678	-211.640	-342.715	1074.053	-173.611	-330.272	1018.279	-2.777	-395.422	1008.576	-34.815	-404.106	914.840	-36.339	-374.331	778.298	4.065	-413.961	795.392	40.200	60.419	763.213	-190.798	-55.220	807.120	-7.995	-197.442	777.009	-221.280	-124.560	805.545	-13.117	88.664	683.617	-254.823	75.877	611.335	-353.313	106.073	564.045	-346.685	124.601	596.672	-194.487	104.855	529.688	-287.553	78.717	432.583	-429.824	59.921	323.519	-444.212	16.301	218.736	-406.113	73.782	341.951	-370.633	31.714	242.614	-323.820	-18.932	105.545	-292.797	-78.680	91.721	-223.798	6.489	40.702	-371.013	-45.640	53.023	-431.412	-226.818	724.387	-298.142	-218.679	656.070	-417.245	-292.364	642.259	-243.675	-276.606	573.096	-366.374	-261.457	524.594	-494.656	-286.918	361.278	-507.001	-296.573	385.084	-420.730	-290.826	264.754	-397.960	-314.006	158.129	-410.920	-272.595	128.086	-342.401	-351.284	88.754	-495.490	-286.747	103.018	-537.335
41	0.20000	-92.517	1238.824	-202.969	47.422	1177.191	-284.909	-238.542	1179.600	-297.717	-85.194	1137.086	-326.777	187.590	1029.859	-141.868	149.690	943.554	-45.287	217.388	955.104	-68.600	213.461	838.986	-174.817	205.397	760.225	-189.125	190.595	788.211	-228.972	-343.480	1074.185	-188.037	-330.604	1022.599	-15.295	-395.433	1011.602	-46.696	-404.450	918.126	-47.273	-374.050	782.223	-6.102	-413.785	800.489	28.857	62.496	762.589	-202.712	-55.043	807.445	-21.876	-196.583	777.235	-234.912	-123.969	806.596	-26.772	91.504	679.517	-268.342	77.539	607.272	-367.567	107.440	558.683	-358.550	125.517	592.612	-206.545	104.499	525.081	-298.844	78.952	427.645	-440.373	59.481	320.281	-452.351	15.672	216.474	-411.624	74.001	339.831	-379.319	31.828	241.739	-330.109	-19.041	107.313	-294.648	-79.344	94.515	-225.510	6.244	41.163	-371.248	-46.629	52.919	-433.101	-225.594	723.753	-310.397	-216.930	655.923	-429.615	-290.294	640.590	-256.621	-274.672	572.356	-379.580	-259.973	524.058	-508.344	-287.585	361.097	-529.411	-297.386	378.653	-440.489	-292.504	258.216	-426.519	-317.423	153.889	-446.907	-276.122	117.010	-379.355	-354.446	89.061	-535.552	-289.694	105.097	-575.734
42	0.20500	-92.482	1237.194	-219.985	46.762	1175.446	-302.673	-238.924	1176.854	-313.437	-85.679	1134.237	-343.131	188.976	1030.385	-159.340	151.576	945.657	-61.468	220.405	957.614	-86.142	213.537	841.356	-192.696	205.165	762.680	-206.626	190.118	791.205	-246.167	-344.358	1074.795	-201.743	-331.011	1026.930	-27.934	-395.327	1014.883	-58.494	-404.823	921.442	-58.604	-373.553	786.223	-17.251	-413.428	804.424	17.972	64.384	762.310	-214.419	-54.648	807.804	-35.701	-196.705	777.477	-248.896	-122.630	807.661	-40.509	94.730	675.049	-281.132	79.867	602.183	-380.306	108.561	553.067	-370.139	126.177	588.777	-218.645	104.278	520.461	-310.241	79.112	423.010	-451.117	59.521	317.430	-460.084	15.375	214.750	-417.181	74.339	338.181	-387.665	32.356	241.197	-336.392	-18.991	109.363	-296.119	-79.761	97.819	-226.757	6.118	41.548	-371.418	-46.191	53.248	-433.001	-224.622	722.773	-322.729	-215.715	655.192	-442.107	-288.723	638.914	-268.964	-272.694	571.334	-392.056	-258.502	522.318	-521.566	-288.159	360.507	-551.400	-297.866	373.427	-461.916	-293.829	251.663	-454.907	-320.305	147.630	-482.302	-279.500	106.258	-416.909	-356.934	89.417	-574.664	-291.813	107.524	-613.459
43	0.21000	-92.439	1235.617	-236.924	46.094	1173.778	-320.438	-239.328	1174.049	-329.228	-86.263	1131.287	-359.209	190.375	1031.235	-176.590	153.835	948.047	-77.320	223.089	959.905	-104.072	213.557	844.063	-210.192	204.867	765.419	-223.902	189.580	794.406	-263.014	-345.152	1075.633	-214.943	-331.390	1031.036	-40.744	-395.252	1018.171	-70.297	-404.408	924.700	-69.718	-373.074	790.225	-29.583	-412.902	808.202	5.891	66.236	762.238	-226.171	-53.930	808.115	-49.425	-194.768	778.332	-261.782	-121.012	808.432	-54.322	97.336	671.037	-294.639	82.173	597.536	-393.435	109.690	547.559	-382.067	126.713	585.185	-230.942	104.227	515.942	-321.850	79.047	418.788	-462.020	59.329	314.877	-468.017	15.433	213.225	-422.311	74.493	337.065	-395.899	33.145	241.187	-342.306	-19.041	111.271	-297.358	-79.955	100.922	-228.188	6.124	41.862	-371.598	-46.058	53.448	-433.146	-223.823	721.418	-335.354	-214.578	653.766	-454.769	-286.667	636.920	-281.373	-270.738	569.536	-404.410	-256.890	519.442	-533.780	-288.788	359.511	-572.863	-298.714	367.181	-483.288	-294.855	245.153	-483.208	-322.189	141.940	-516.719	-283.060	96.298	-454.846	-359.284	90.852	-613.385	-292.901	110.610	-650.704
44	0.21500	-92.123	1233.950	-254.163	45.501	1172.073	-338.064	-239.642	1171.196	-344.998	-86.874	1128.443	-375.407	191.837	1032.333	-193.583	156.403	950.683	-92.807	226.092	962.798	-121.386	213.542	847.035	-227.303	204.519	768.342	-240.920	188.423	796.850	-279.366	-346.003	1076.946	-227.776	-331.682	1034.990	-53.763	-394.894	1021.562	-82.493	-404.715	928.412	-81.855	-372.473	793.537	-42.741	-412.160	811.777	-6.951	68.005	761.832	-237.139	-53.001	808.368	-63.056	-193.152	779.832	-276.185	-119.366	808.890	-68.196	99.164	667.017	-308.949	84.019	592.479	-406.493	110.568	542.272	-394.082	127.174	581.956	-243.433	104.382	511.591	-333.454	79.347	414.870	-473.697	59.564	312.044	-475.576	15.823	211.861	-426.853	74.407	336.330	-404.118	34.019	241.686	-347.644	-18.495	112.947	-298.803	-79.875	104.300	-229.209	6.257	42.072	-371.785	-45.939	53.527	-433.382	-223.181	719.751	-348.234	-213.760	651.781	-467.380	-285.055	634.986	-293.552	-268.771	566.860	-416.460	-255.258	515.613	-545.353	-288.970	358.243	-593.700	-299.399	360.578	-503.842	-295.931	238.707	-511.189	-324.317	137.673	-552.202	-286.653	87.744	-492.343	-359.950	93.689	-652.763	-293.487	113.953	-686.674
45	0.22000	-91.774	1232.251	-271.093	44.585	1170.245	-355.521	-239.991	1168.361	-360.597	-87.555	1125.657	-391.365	193.352	1033.633	-210.419	159.757	954.432	-107.730	228.967	965.923	-138.416	213.783	850.086	-243.751	204.176	771.468	-257.657	187.903	799.843	-295.773	-346.951	1078.701	-241.146	-331.834	1038.532	-66.894	-394.531	1024.692	-94.751	-404.933	931.786	-94.374	-371.361	797.194	-55.755	-411.380	815.036	-20.186	69.547	762.198	-249.857	-51.947	808.539	-76.639	-191.344	780.582	-289.987	-117.778	809.190	-82.036	100.827	663.572	-323.313	85.311	587.571	-419.533	111.302	537.181	-406.199	127.643	578.870	-256.164	104.831	507.482	-345.261	79.682	411.558	-485.214	59.361	309.713	-483.862	16.484	210.493	-430.882	74.926	336.255	-412.785	34.769	242.638	-352.926	-17.688	113.735	-299.935	-79.300	107.438	-230.646	6.641	42.109	-371.949	-45.751	53.645	-433.539	-222.765	717.688	-361.286	-213.161	648.885	-479.824	-282.897	632.478	-305.731	-266.674	563.639	-428.023	-253.738	510.806	-556.359	-288.870	356.610	-614.079	-300.051	353.641	-524.310	-297.165	231.718	-538.321	-325.889	133.811	-587.820	-290.576	80.189	-528.696	-359.893	96.191	-690.473	-292.870	119.359	-723.478
